<svg xmlns="http://www.w3.org/2000/svg"
     width="28" height="28"
     viewBox="0 0 512 512">
  <path
        d="M 136.00,185.00
           C 124.77,173.77 95.30,141.23 85.89,129.00
             70.57,109.09 64.71,95.11 65.00,70.00
             65.11,61.19 67.83,50.86 71.76,43.00
             76.78,32.94 83.04,24.61 92.00,17.68
             126.16,-8.76 176.32,0.79 198.37,38.00
             203.31,46.33 205.81,54.49 207.13,64.00
             208.74,75.60 207.93,83.82 204.25,95.00
             200.02,107.87 187.74,124.56 179.08,135.00
             179.08,135.00 152.42,167.00 152.42,167.00
             147.62,172.69 141.81,180.64 136.00,185.00 Z
           M 133.00,41.30
           C 125.64,42.48 119.83,44.40 114.01,49.33
             105.20,56.79 101.53,66.75 102.45,78.00
             102.69,81.04 102.57,82.93 103.46,85.99
             104.36,89.09 105.46,90.50 107.08,93.17
             114.38,105.21 126.97,111.33 141.00,109.83
             146.26,109.27 150.70,107.08 155.00,104.10
             169.84,93.82 175.17,76.33 167.01,60.00
             160.62,47.22 147.01,40.56 133.00,41.30 Z
           M 179.00,164.53
           C 183.54,163.78 193.08,163.18 196.96,165.74
             203.47,170.03 203.28,179.11 197.79,182.99
             194.62,185.23 190.68,184.99 187.00,185.00
             182.60,185.01 177.74,185.59 174.13,182.57
             167.17,176.75 169.55,167.57 179.00,164.53 Z
           M 224.00,164.48
           C 229.75,163.64 248.31,163.09 252.95,165.93
             259.40,169.90 259.23,179.10 252.95,183.15
             249.71,185.23 245.68,184.99 242.00,185.00
             236.30,185.01 223.76,185.80 219.21,182.86
             213.49,179.18 212.41,167.85 224.00,164.48 Z
           M 279.00,165.75
           C 285.31,164.51 286.26,165.71 292.00,165.75
             297.06,166.18 305.55,165.53 309.78,168.73
             315.74,173.26 314.41,182.49 307.98,185.83
             305.08,187.34 300.28,187.01 297.00,187.00
             292.87,186.98 278.04,186.11 275.11,184.15
             270.00,180.73 267.58,169.23 279.00,165.75 Z
           M 332.04,170.85
           C 338.61,169.02 349.14,170.92 356.00,172.08
             359.32,172.64 363.17,173.10 365.77,175.43
             371.10,180.19 370.43,192.30 359.00,192.96
             353.96,193.24 347.19,191.78 342.00,191.15
             338.85,190.78 333.90,190.48 331.19,188.84
             324.49,184.79 324.74,175.21 332.04,170.85 Z
           M 387.04,180.85
           C 394.83,178.69 402.65,182.19 410.00,184.67
             413.63,185.89 417.96,187.16 420.49,190.21
             426.76,197.78 420.58,208.27 411.00,207.15
             411.00,207.15 394.00,201.67 394.00,201.67
             390.90,200.65 386.79,199.72 384.42,197.43
             379.03,192.23 381.02,184.45 387.04,180.85 Z
           M 434.04,207.74
           C 452.48,203.21 453.33,226.85 450.32,239.00
             448.87,244.84 444.47,249.62 438.00,248.62
             435.83,248.28 433.83,247.28 432.28,245.72
             426.33,239.78 431.13,232.84 430.70,227.00
             430.29,221.36 424.03,213.55 434.04,207.74 Z
           M 417.00,254.65
           C 428.97,252.46 432.16,263.64 428.69,269.91
             426.08,274.61 410.34,283.85 405.00,285.37
             393.03,288.76 387.56,277.35 392.09,270.10
             394.41,266.38 399.27,264.74 403.00,262.69
             407.82,260.04 411.84,256.69 417.00,254.65 Z
           M 366.00,278.51
           C 380.48,276.38 382.31,288.98 377.49,294.79
             374.02,298.97 356.75,303.59 351.00,304.53
             338.36,306.60 335.38,294.19 340.43,288.13
             344.08,283.76 360.01,280.03 366.00,278.51 Z
           M 313.00,292.45
           C 326.11,291.37 329.05,303.49 322.77,309.77
             318.95,313.60 300.82,317.04 295.00,317.47
             284.41,318.25 280.18,306.73 286.30,300.22
             290.09,296.20 306.99,293.52 313.00,292.45 Z
           M 255.00,304.44
           C 258.44,304.00 262.78,303.48 265.96,305.17
             271.88,308.33 272.64,317.18 267.77,321.57
             264.45,324.57 246.07,328.11 241.00,328.69
             228.35,330.12 226.60,316.52 231.43,311.39
             235.20,307.39 249.26,305.49 255.00,304.44 Z
           M 203.00,315.47
           C 215.99,314.00 219.84,326.10 213.58,332.72
             210.29,336.22 194.25,339.61 189.00,340.54
             186.01,341.06 181.83,341.34 179.10,339.83
             173.24,336.57 172.72,327.91 177.39,323.43
             180.79,320.17 197.69,316.60 203.00,315.47 Z
           M 379.00,503.00
           C 367.48,491.48 338.70,459.70 328.89,447.00
             315.09,429.15 307.74,412.78 308.00,390.00
             308.10,382.15 310.46,371.10 313.78,364.00
             317.54,355.97 322.69,347.36 329.09,341.17
             357.21,313.96 403.36,314.40 430.96,342.04
             437.03,348.11 442.17,356.05 445.40,364.00
             448.62,371.95 450.90,380.37 451.00,389.00
             451.32,416.63 438.35,433.41 421.61,454.00
             421.61,454.00 396.75,484.00 396.75,484.00
             391.54,490.23 385.49,498.34 379.00,503.00 Z
           M 148.00,331.61
           C 162.68,328.88 165.69,341.31 160.35,347.78
             157.91,350.74 153.46,351.95 150.00,353.43
             145.89,355.19 140.14,358.34 136.00,359.39
             123.03,362.70 119.49,350.30 123.74,344.10
             126.92,339.46 142.31,333.45 148.00,331.61 Z
           M 379.00,359.45
           C 367.23,360.47 357.95,363.99 350.79,374.00
             345.57,381.28 344.90,387.40 345.00,396.00
             345.24,415.53 362.05,429.04 381.00,428.25
             408.76,427.11 424.75,395.20 407.47,373.00
             400.20,363.66 390.51,359.89 379.00,359.45 Z
           M 102.04,361.74
           C 109.62,359.88 117.66,362.71 116.75,372.00
             116.33,376.22 113.30,379.18 111.76,385.00
             110.43,390.03 111.73,393.21 109.26,396.96
             106.98,400.42 103.15,402.39 99.00,401.76
             92.39,400.76 90.04,394.97 90.03,389.00
             90.01,380.24 94.11,366.24 102.04,361.74 Z
           M 108.02,413.02
           C 118.78,409.40 122.88,417.44 130.00,423.83
             133.15,426.65 137.05,428.99 138.77,433.04
             141.55,439.58 137.66,447.81 128.00,446.89
             123.38,446.45 120.44,443.75 117.00,440.92
             109.18,434.48 95.31,422.18 108.02,413.02 Z
           M 156.00,443.61
           C 162.21,442.99 172.04,448.07 178.00,450.58
             180.90,451.80 184.29,452.86 186.43,455.27
             191.52,461.02 188.53,470.59 181.00,472.39
             178.20,473.06 175.64,472.18 173.00,471.33
             168.06,469.73 153.71,464.26 150.65,460.66
             145.18,454.22 148.59,446.41 156.00,443.61 Z
           M 209.00,462.62
           C 215.16,462.29 221.07,464.94 227.00,466.35
             230.80,467.25 235.74,467.93 238.79,470.51
             246.22,476.79 242.18,487.75 233.00,488.75
             230.00,489.08 226.87,487.92 224.00,487.15
             219.04,485.82 207.71,483.65 204.14,480.57
             197.83,475.13 199.49,465.36 209.00,462.62 Z
           M 262.02,475.70
           C 267.54,474.57 278.04,477.20 284.00,478.25
             287.28,478.82 291.15,479.45 293.78,481.65
             299.18,486.17 298.60,496.71 290.00,499.21
             286.98,500.27 284.02,499.58 281.00,499.21
             276.35,498.31 262.46,496.27 259.19,493.99
             252.74,489.51 253.62,479.68 262.02,475.70 Z
           M 317.04,484.65
           C 322.06,483.59 333.89,484.16 337.89,487.43
             344.22,492.61 342.86,502.59 334.98,505.30
             331.06,506.65 317.51,504.92 314.22,502.30
             307.72,497.11 309.71,488.00 317.04,484.65 Z" />
</svg>
