<svg xmlns="http://www.w3.org/2000/svg"
     width="28" height="28"
     viewBox="0 0 1112 1024" fill="currentColor">
  <path d="M 575.00,154.00
           C 575.72,145.16 576.91,137.29 580.20,129.00
             582.61,122.93 585.93,117.01 590.14,112.00
             615.60,81.77 647.77,87.00 683.00,87.00
             711.46,87.00 736.17,83.63 760.00,102.81
             764.89,106.75 767.60,109.92 771.25,115.00
             774.93,120.11 777.58,125.06 779.66,131.00
             782.29,138.54 783.63,146.02 784.00,154.00
             784.00,154.00 932.00,154.00 932.00,154.00
             967.02,154.05 996.52,169.73 1014.80,200.00
             1022.26,212.35 1026.98,227.52 1027.00,242.00
             1027.00,242.00 1027.00,545.00 1027.00,545.00
             1027.00,545.00 1027.00,785.00 1027.00,785.00
             1026.96,812.85 1007.26,835.20 981.00,842.57
             970.15,845.62 959.13,845.00 948.00,845.00
             948.00,845.00 948.00,881.00 948.00,881.00
             947.92,887.58 946.55,892.85 944.31,899.00
             929.52,939.58 879.21,950.40 846.00,925.10
             819.13,904.64 823.00,874.58 823.00,845.00
             823.00,845.00 534.00,845.00 534.00,845.00
             534.00,869.75 537.27,892.81 521.52,914.00
             494.01,951.02 436.71,945.74 415.32,905.00
             406.30,887.83 409.00,864.14 409.00,845.00
             396.87,845.00 385.79,845.70 374.00,841.97
             348.97,834.05 332.04,811.24 332.00,785.00
             332.00,785.00 332.00,547.00 332.00,547.00
             332.00,547.00 332.00,242.00 332.00,242.00
             332.02,231.31 334.29,222.88 338.20,213.00
             353.20,175.14 390.34,154.06 430.00,154.00
             430.00,154.00 575.00,154.00 575.00,154.00 Z
           M 428.00,199.07
           C 428.00,199.07 417.00,200.46 417.00,200.46
             405.90,202.47 394.53,209.95 387.93,219.00
             373.64,238.57 374.92,270.35 392.29,287.71
             402.33,297.76 415.05,301.98 429.00,302.00
             429.00,302.00 754.00,302.00 754.00,302.00
             754.00,302.00 934.00,302.00 934.00,302.00
             962.72,301.66 981.88,279.92 982.96,252.00
             983.28,243.77 980.67,231.13 976.54,224.00
             965.20,204.42 947.27,199.03 926.00,199.07
             926.00,199.07 596.00,199.07 596.00,199.07
             596.00,199.07 486.00,199.07 486.00,199.07
             486.00,199.07 428.00,199.07 428.00,199.07 Z
           M 168.00,887.00
           C 168.00,887.00 168.00,459.00 168.00,459.00
             167.99,456.06 168.48,452.04 165.69,450.17
             165.69,450.17 147.00,446.09 147.00,446.09
             136.79,443.17 124.91,436.89 117.00,429.83
             102.02,416.46 92.20,400.89 88.62,381.00
             86.45,369.01 86.86,355.22 87.00,343.00
             87.43,306.14 110.51,273.27 146.00,262.03
             161.69,257.06 179.66,257.81 196.00,258.00
             239.66,258.51 278.48,294.71 279.00,339.00
             279.00,339.00 279.00,367.00 279.00,367.00
             278.97,389.19 269.16,411.70 253.00,426.91
             243.57,435.79 232.34,442.15 220.00,445.98
             220.00,445.98 201.31,450.17 201.31,450.17
             198.52,452.04 199.01,456.06 199.00,459.00
             199.00,459.00 199.00,887.00 199.00,887.00
             207.69,887.00 214.54,886.61 223.00,889.54
             242.69,896.37 253.94,913.56 254.00,934.00
             254.00,934.00 110.00,934.00 110.00,934.00
             110.06,913.99 121.43,895.93 141.00,889.52
             150.70,886.34 158.08,887.00 168.00,887.00 Z
           M 425.00,337.07
           C 406.03,340.07 390.47,346.98 382.46,366.00
             376.60,379.92 378.00,402.68 378.00,418.00
             378.00,418.00 378.00,513.00 378.00,513.00
             378.05,522.77 379.66,533.31 384.32,542.00
             393.50,559.09 411.35,566.97 430.00,567.00
             430.00,567.00 855.00,567.00 855.00,567.00
             855.00,567.00 909.00,567.00 909.00,567.00
             935.04,567.00 957.83,569.94 974.64,545.00
             977.74,540.41 979.03,537.24 980.65,532.00
             982.25,526.84 982.99,518.46 983.00,513.00
             983.00,513.00 983.00,391.00 983.00,391.00
             982.99,385.53 982.14,376.11 980.48,371.00
             972.79,347.33 952.60,337.04 929.00,337.07
             929.00,337.07 595.00,337.07 595.00,337.07
             595.00,337.07 483.00,337.07 483.00,337.07
             483.00,337.07 425.00,337.07 425.00,337.07 Z
           M 423.00,661.29
           C 399.29,664.91 381.11,678.00 374.75,702.00
             367.46,729.58 381.82,756.32 408.00,766.99
             414.68,769.71 424.82,771.60 432.00,770.71
             442.07,769.48 450.63,766.87 459.00,760.96
             496.79,734.26 487.28,675.10 442.00,663.16
             435.70,661.49 429.50,660.68 423.00,661.29 Z
           M 927.00,661.29
           C 905.31,664.60 887.42,675.39 879.70,697.00
             869.00,726.93 885.03,759.83 916.00,768.57
             921.71,770.18 929.10,771.42 935.00,770.72
             947.31,769.24 958.64,765.27 968.00,756.83
             999.99,727.97 987.39,673.40 945.00,662.90
             938.99,661.41 933.17,660.71 927.00,661.29 Z" />
</svg>
