<svg xmlns="http://www.w3.org/2000/svg"
     width="28" height="28"
     viewBox="0 0 491 439">
  <path d="M 131.00,2.00
           C 133.91,-1.24 139.95,0.00 144.00,0.00
             144.00,0.00 177.00,0.00 177.00,0.00
             177.00,0.00 313.00,0.00 313.00,0.00
             313.00,0.00 349.00,0.00 349.00,0.00
             351.67,0.00 362.46,0.41 364.17,1.99
             365.41,3.14 364.98,4.75 365.00,5.00
             365.00,5.00 376.00,8.00 376.00,8.00
             377.85,14.77 380.05,12.28 383.31,16.51
             383.31,16.51 390.20,26.18 390.20,26.18
             393.18,32.53 391.41,35.57 399.00,39.00
             400.16,43.86 401.36,43.81 400.00,49.00
             400.00,49.00 405.00,49.00 405.00,49.00
             405.00,49.00 407.00,60.00 407.00,60.00
             407.00,60.00 409.00,59.00 409.00,59.00
             409.00,59.00 409.00,64.11 409.00,64.11
             409.00,64.11 411.42,64.11 411.42,64.11
             411.42,64.11 415.00,74.00 415.00,74.00
             415.00,74.00 419.00,74.00 419.00,74.00
             419.51,76.13 421.20,81.75 422.27,83.49
             425.11,88.08 428.14,87.47 427.00,94.00
             427.00,94.00 430.00,95.00 430.00,95.00
             430.00,95.00 429.00,98.00 429.00,98.00
             429.00,98.00 434.00,99.00 434.00,99.00
             434.00,99.00 438.00,113.00 438.00,113.00
             438.00,113.00 442.00,113.00 442.00,113.00
             442.00,113.00 444.00,123.00 444.00,123.00
             444.00,123.00 448.00,123.00 448.00,123.00
             448.00,123.00 452.00,138.00 452.00,138.00
             452.00,138.00 456.00,138.00 456.00,138.00
             456.32,141.93 456.29,142.10 459.00,145.00
             459.00,145.00 458.00,148.00 458.00,148.00
             463.05,150.43 466.30,157.59 467.00,163.00
             467.00,163.00 471.00,163.00 471.00,163.00
             471.74,173.39 479.63,176.39 481.00,187.00
             481.00,187.00 485.00,187.00 485.00,187.00
             485.00,187.00 487.00,202.00 487.00,202.00
             487.00,202.00 491.00,202.00 491.00,202.00
             491.00,202.00 491.00,238.00 491.00,238.00
             491.00,238.00 487.00,238.00 487.00,238.00
             486.95,252.72 478.75,252.28 477.00,265.00
             477.00,265.00 473.00,265.00 473.00,265.00
             473.00,265.00 471.00,277.00 471.00,277.00
             471.00,277.00 467.00,277.00 467.00,277.00
             465.48,288.83 456.90,290.17 456.00,302.00
             456.00,302.00 452.00,302.00 452.00,302.00
             450.11,316.76 442.42,313.62 442.00,327.00
             442.00,327.00 438.00,327.00 438.00,327.00
             438.00,327.00 434.00,341.00 434.00,341.00
             434.00,341.00 429.00,341.00 429.00,341.00
             429.41,343.82 429.67,343.85 427.00,345.00
             428.16,352.13 424.94,351.54 422.01,356.99
             421.09,358.68 419.48,363.99 419.00,366.00
             419.00,366.00 415.00,366.00 415.00,366.00
             415.00,366.00 413.00,376.00 413.00,376.00
             413.00,376.00 409.00,376.00 409.00,376.00
             409.00,376.00 405.00,391.00 405.00,391.00
             405.00,391.00 400.00,391.00 400.00,391.00
             400.00,391.00 398.00,395.00 398.00,395.00
             398.93,399.42 398.46,400.21 394.00,401.00
             394.00,401.00 390.00,416.00 390.00,416.00
             390.00,416.00 386.00,416.00 386.00,416.00
             384.97,423.99 379.99,428.97 372.00,430.00
             372.00,430.00 372.00,434.00 372.00,434.00
             372.00,434.00 351.00,439.00 351.00,439.00
             351.00,439.00 129.00,439.00 129.00,439.00
             129.00,439.00 129.00,436.00 129.00,436.00
             129.00,436.00 117.00,434.00 117.00,434.00
             115.47,428.39 113.44,428.17 108.00,428.00
             108.00,428.00 107.00,422.00 107.00,422.00
             107.00,422.00 102.00,420.00 102.00,420.00
             100.74,410.85 87.13,395.73 86.00,387.00
             81.54,386.21 81.07,385.42 82.00,381.00
             76.98,377.41 74.04,370.16 71.16,364.80
             68.51,359.88 67.42,361.04 67.00,355.00
             67.00,355.00 65.00,356.00 65.00,356.00
             63.53,345.29 57.33,346.61 57.00,335.00
             57.00,335.00 53.00,335.00 53.00,335.00
             53.00,335.00 50.00,330.00 50.00,330.00
             50.00,330.00 51.00,327.00 51.00,327.00
             48.07,324.77 48.21,324.55 49.00,321.00
             49.00,321.00 48.00,320.00 48.00,320.00
             48.00,320.00 45.00,321.00 45.00,321.00
             45.00,321.00 37.79,307.99 37.79,307.99
             37.79,307.99 35.18,301.31 35.18,301.31
             32.39,295.83 29.49,296.62 28.00,285.00
             28.00,285.00 24.00,285.00 24.00,285.00
             20.92,272.05 19.03,275.30 15.91,269.68
             15.91,269.68 13.37,263.70 13.37,263.70
             13.37,263.70 9.84,259.58 9.84,259.58
             7.68,256.68 5.46,249.61 5.00,246.00
             5.00,246.00 1.00,246.00 1.00,246.00
             1.00,246.00 0.00,232.00 0.00,232.00
             0.00,232.00 0.00,208.00 0.00,208.00
             0.00,208.00 1.00,194.00 1.00,194.00
             1.00,194.00 5.00,194.00 5.00,194.00
             5.00,194.00 7.00,183.00 7.00,183.00
             7.00,183.00 9.00,184.00 9.00,184.00
             9.00,184.00 9.00,179.00 9.00,179.00
             9.00,179.00 13.00,179.00 13.00,179.00
             13.00,179.00 15.00,169.00 15.00,169.00
             22.80,165.47 21.05,161.55 24.71,155.05
             27.79,149.58 29.48,151.15 30.00,144.00
             30.00,144.00 34.00,144.00 34.00,144.00
             34.00,144.00 38.00,130.00 38.00,130.00
             38.00,130.00 42.00,130.00 42.00,130.00
             42.16,124.30 43.54,119.63 49.00,117.00
             49.00,117.00 48.00,114.00 48.00,114.00
             48.00,114.00 51.00,113.00 51.00,113.00
             51.00,113.00 50.00,110.00 50.00,110.00
             55.52,104.49 66.45,85.72 67.00,78.00
             67.00,78.00 71.00,78.00 71.00,78.00
             71.00,78.00 79.00,60.00 79.00,60.00
             79.00,60.00 82.00,59.00 82.00,59.00
             81.07,54.58 81.54,53.79 86.00,53.00
             86.00,53.00 88.00,43.00 88.00,43.00
             88.00,43.00 92.00,43.00 92.00,43.00
             92.00,43.00 96.00,28.00 96.00,28.00
             96.00,28.00 100.00,28.00 100.00,28.00
             100.00,28.00 102.00,20.00 102.00,20.00
             102.00,20.00 106.00,20.00 106.00,20.00
             106.00,20.00 106.00,16.00 106.00,16.00
             106.00,16.00 115.00,12.00 115.00,12.00
             115.00,12.00 115.00,8.00 115.00,8.00
             115.00,8.00 123.00,6.00 123.00,6.00
             123.00,6.00 123.00,1.00 123.00,1.00
             123.00,1.00 131.00,2.00 131.00,2.00 Z
           M 344.00,75.00
           C 343.55,68.57 337.61,62.76 331.56,60.69
             331.56,60.69 325.17,59.54 325.17,59.54
             320.82,58.45 322.60,58.09 317.00,58.00
             317.00,58.00 173.00,58.00 173.00,58.00
             166.90,58.01 155.89,60.59 151.00,64.31
             143.87,69.75 143.65,74.13 139.73,80.99
             139.73,80.99 126.22,102.23 126.22,102.23
             123.37,107.06 121.61,115.17 117.00,118.00
             117.00,118.00 115.00,122.00 115.00,122.00
             115.00,122.00 116.00,125.00 116.00,125.00
             109.96,128.54 108.20,134.37 105.15,140.19
             105.15,140.19 100.78,147.01 100.78,147.01
             100.78,147.01 93.55,161.40 93.55,161.40
             90.61,166.78 87.31,166.78 87.00,173.00
             80.98,176.53 83.49,176.71 80.74,181.49
             77.21,187.61 72.47,193.72 72.00,201.00
             72.00,201.00 70.00,200.00 70.00,200.00
             68.98,206.99 66.86,205.33 64.81,209.52
             64.81,209.52 62.28,219.13 62.28,219.13
             62.00,221.67 62.94,222.89 63.54,225.16
             67.02,238.46 65.39,230.96 71.28,240.24
             71.28,240.24 77.37,253.20 77.37,253.20
             79.49,257.45 81.05,262.21 85.00,265.00
             85.00,265.00 84.00,268.00 84.00,268.00
             84.00,268.00 93.00,274.00 93.00,274.00
             93.64,283.78 104.51,296.72 107.00,307.00
             107.00,307.00 111.00,307.00 111.00,307.00
             111.00,307.00 115.00,317.00 115.00,317.00
             117.67,319.96 117.65,320.07 117.00,324.00
             117.00,324.00 122.00,326.00 122.00,326.00
             122.00,326.00 126.00,339.00 126.00,339.00
             126.00,339.00 130.00,340.00 130.00,340.00
             130.42,346.07 131.88,345.41 134.56,350.60
             138.83,358.84 145.51,376.47 156.00,377.00
             161.44,384.30 183.21,382.00 192.00,382.00
             192.00,382.00 294.00,382.00 294.00,382.00
             294.00,382.00 318.00,382.00 318.00,382.00
             323.13,381.97 329.75,381.35 333.00,377.00
             333.00,377.00 336.00,378.00 336.00,378.00
             336.00,378.00 340.00,376.00 340.00,376.00
             340.00,376.00 347.23,363.48 347.23,363.48
             347.23,363.48 351.78,357.76 351.78,357.76
             351.78,357.76 361.00,342.00 361.00,342.00
             361.00,342.00 360.00,339.00 360.00,339.00
             360.00,339.00 363.00,338.00 363.00,338.00
             363.50,332.68 366.93,330.13 369.80,326.26
             369.80,326.26 373.27,320.01 373.27,320.01
             376.48,314.42 378.52,314.30 379.00,307.00
             379.00,307.00 381.00,308.00 381.00,308.00
             381.00,308.00 386.25,295.52 386.25,295.52
             386.25,295.52 389.93,291.58 389.93,291.58
             389.93,291.58 394.00,286.00 394.00,286.00
             394.93,281.24 398.71,275.63 401.32,271.53
             401.32,271.53 408.72,257.24 408.72,257.24
             408.72,257.24 414.21,249.99 414.21,249.99
             416.90,245.01 417.93,238.12 423.00,235.00
             423.00,235.00 425.00,231.00 425.00,231.00
             425.00,231.00 426.75,220.00 426.75,220.00
             426.75,220.00 425.00,209.00 425.00,209.00
             425.00,209.00 422.00,208.00 422.00,208.00
             422.00,208.00 423.00,205.00 423.00,205.00
             418.51,200.76 416.92,194.45 413.78,189.24
             413.78,189.24 407.27,181.49 407.27,181.49
             407.27,181.49 404.61,174.81 404.61,174.81
             404.61,174.81 400.79,168.72 400.79,168.72
             398.17,163.89 397.84,159.42 393.00,156.00
             393.00,156.00 394.00,153.00 394.00,153.00
             394.00,153.00 391.00,152.00 391.00,152.00
             391.00,152.00 392.00,149.00 392.00,149.00
             392.00,149.00 387.00,149.00 387.00,149.00
             386.21,143.43 384.98,144.87 383.49,140.83
             383.49,140.83 381.98,135.61 381.98,135.61
             381.98,135.61 372.32,118.47 372.32,118.47
             369.26,113.67 363.89,107.52 363.00,102.00
             359.15,98.15 354.39,87.45 350.72,81.77
             348.86,78.90 347.56,75.75 344.00,75.00 Z
           M 158.00,180.00
           C 158.79,173.86 167.39,160.14 170.98,154.53
             176.91,145.28 185.11,125.57 195.42,121.72
             197.80,120.84 200.50,121.00 203.00,121.00
             203.00,121.00 284.00,121.00 284.00,121.00
             297.72,121.02 300.17,127.33 306.83,137.96
             306.83,137.96 315.11,152.57 315.11,152.57
             315.11,152.57 334.04,185.00 334.04,185.00
             338.01,191.81 344.88,201.21 344.78,209.00
             345.03,211.60 345.16,217.42 344.78,219.71
             344.78,219.71 328.72,247.20 328.72,247.20
             328.72,247.20 307.54,284.67 307.54,284.67
             300.97,294.84 299.47,301.98 286.00,302.00
             286.00,302.00 248.00,302.00 248.00,302.00
             248.00,302.00 210.00,302.00 210.00,302.00
             203.40,302.00 196.21,303.10 190.42,299.31
             185.32,295.96 183.86,290.73 180.93,285.71
             178.59,281.72 175.13,277.72 175.00,273.00
             169.81,269.99 167.80,263.43 164.89,258.43
             164.89,258.43 146.99,226.95 146.99,226.95
             144.02,221.64 140.43,216.38 141.13,210.00
             141.97,202.44 153.98,186.99 156.00,179.00
             156.00,179.00 158.00,180.00 158.00,180.00 Z" />
</svg>
